<mxfile host="65bd71144e">
    <diagram id="1EBe2tYzhHy3d0gjnNcR" name="Page-1">
        <mxGraphModel dx="2810" dy="1223" grid="1" gridSize="10" guides="1" tooltips="1" connect="1" arrows="1" fold="1" page="1" pageScale="1" pageWidth="850" pageHeight="1100" math="0" shadow="0">
            <root>
                <mxCell id="0"/>
                <mxCell id="1" parent="0"/>
                <mxCell id="42" value="" style="rounded=0;whiteSpace=wrap;html=1;labelBackgroundColor=none;fontSize=18;direction=south;fillColor=#647687;strokeColor=#314354;fontColor=#ffffff;" parent="1" vertex="1">
                    <mxGeometry x="-200" y="3.75" width="640" height="670" as="geometry"/>
                </mxCell>
                <mxCell id="41" value="" style="rounded=0;whiteSpace=wrap;html=1;labelBackgroundColor=none;fontSize=18;fontColor=#ffffff;direction=south;fillColor=#6d8764;strokeColor=#3A5431;" parent="1" vertex="1">
                    <mxGeometry x="440" y="3.75" width="550" height="670" as="geometry"/>
                </mxCell>
                <mxCell id="36" value="" style="endArrow=none;html=1;labelBackgroundColor=#FFFFFF;fontSize=18;fontColor=#F7F7F7;" parent="1" edge="1">
                    <mxGeometry width="50" height="50" relative="1" as="geometry">
                        <mxPoint x="440" y="10" as="sourcePoint"/>
                        <mxPoint x="440" y="570" as="targetPoint"/>
                    </mxGeometry>
                </mxCell>
                <mxCell id="11" value="&lt;font style=&quot;font-size: 13px&quot; color=&quot;#f7f7f7&quot;&gt;1. calls foo()&lt;/font&gt;" style="edgeStyle=none;html=1;labelBackgroundColor=none;" parent="1" source="2" target="3" edge="1">
                    <mxGeometry y="10" relative="1" as="geometry">
                        <mxPoint as="offset"/>
                    </mxGeometry>
                </mxCell>
                <mxCell id="32" value="" style="edgeStyle=none;html=1;labelBackgroundColor=#FFFFFF;fontSize=18;fontColor=#F7F7F7;" parent="1" source="2" target="3" edge="1">
                    <mxGeometry relative="1" as="geometry"/>
                </mxCell>
                <mxCell id="33" value="" style="edgeStyle=none;html=1;labelBackgroundColor=#FFFFFF;fontSize=18;fontColor=#F7F7F7;" parent="1" source="2" target="3" edge="1">
                    <mxGeometry relative="1" as="geometry"/>
                </mxCell>
                <mxCell id="35" value="" style="edgeStyle=none;html=1;labelBackgroundColor=#FFFFFF;fontSize=18;fontColor=#F7F7F7;strokeColor=#F7F7F7;" parent="1" source="2" target="3" edge="1">
                    <mxGeometry relative="1" as="geometry"/>
                </mxCell>
                <mxCell id="2" value="User&lt;br&gt;" style="shape=umlActor;verticalLabelPosition=bottom;verticalAlign=top;html=1;outlineConnect=0;fillColor=none;" parent="1" vertex="1">
                    <mxGeometry x="-160" y="510" width="30" height="60" as="geometry"/>
                </mxCell>
                <mxCell id="8" value="&lt;font style=&quot;font-size: 13px&quot;&gt;&lt;br&gt;&lt;br&gt;&lt;span style=&quot;color: rgb(240 , 240 , 240) ; font-family: &amp;#34;helvetica&amp;#34; ; font-style: normal ; font-weight: 400 ; letter-spacing: normal ; text-align: center ; text-indent: 0px ; text-transform: none ; word-spacing: 0px ; display: inline ; float: none&quot;&gt;2. requireToPassMessage(_target_contract_addr, foo(), _gas)&lt;/span&gt;&lt;/font&gt;" style="edgeStyle=none;html=1;labelBackgroundColor=none;strokeColor=#F7F7F7;" parent="1" source="3" target="7" edge="1">
                    <mxGeometry x="0.3257" y="14" relative="1" as="geometry">
                        <mxPoint as="offset"/>
                    </mxGeometry>
                </mxCell>
                <mxCell id="3" value="Originator Contract" style="rounded=1;whiteSpace=wrap;html=1;fillColor=#1ba1e2;fontColor=#ffffff;strokeColor=#006EAF;" parent="1" vertex="1">
                    <mxGeometry x="-50" y="500" width="170" height="80" as="geometry"/>
                </mxCell>
                <mxCell id="13" value="&lt;font color=&quot;#f7f7f7&quot;&gt;3. UserRequestForAffirmation&lt;/font&gt;" style="edgeStyle=none;html=1;labelBackgroundColor=none;fontSize=13;strokeColor=#F7F7F7;entryX=0.25;entryY=0;entryDx=0;entryDy=0;" parent="1" source="7" target="12" edge="1">
                    <mxGeometry x="0.0223" y="15" relative="1" as="geometry">
                        <mxPoint x="380" y="490" as="targetPoint"/>
                        <mxPoint as="offset"/>
                    </mxGeometry>
                </mxCell>
                <mxCell id="57" value="5. foo()" style="edgeStyle=none;html=1;entryX=0.5;entryY=1;entryDx=0;entryDy=0;labelBackgroundColor=none;fontSize=13;fontColor=#030303;strokeColor=#0A0A0A;fillColor=#0F0F0F;" parent="1" source="7" target="56" edge="1">
                    <mxGeometry x="0.1429" y="-35" relative="1" as="geometry">
                        <mxPoint as="offset"/>
                    </mxGeometry>
                </mxCell>
                <mxCell id="7" value="Foreign Bridge Contract" style="rounded=1;whiteSpace=wrap;html=1;fillColor=#1ba1e2;strokeColor=#006EAF;fontColor=#ffffff;" parent="1" vertex="1">
                    <mxGeometry x="-50" y="330" width="165" height="100" as="geometry"/>
                </mxCell>
                <mxCell id="45" value="4. executeAffirmation()" style="edgeStyle=none;html=1;entryX=0;entryY=0.75;entryDx=0;entryDy=0;labelBackgroundColor=none;fontSize=13;fontColor=#F7F7F7;strokeColor=#F7F7F7;exitX=1.053;exitY=0.788;exitDx=0;exitDy=0;exitPerimeter=0;" parent="1" source="18" target="28" edge="1">
                    <mxGeometry x="0.0679" y="-21" relative="1" as="geometry">
                        <mxPoint x="510" y="490" as="sourcePoint"/>
                        <mxPoint as="offset"/>
                    </mxGeometry>
                </mxCell>
                <mxCell id="12" value="" style="shape=process;whiteSpace=wrap;html=1;backgroundOutline=1;fillColor=#1ba1e2;strokeColor=#006EAF;fontColor=#ffffff;rounded=1;rotation=-90;" parent="1" vertex="1">
                    <mxGeometry x="171.88" y="254.38" width="546.25" height="135" as="geometry"/>
                </mxCell>
                <mxCell id="14" value="" style="shape=mxgraph.signs.healthcare.eye;html=1;pointerEvents=1;fillColor=#000000;strokeColor=none;verticalLabelPosition=bottom;verticalAlign=top;align=center;" parent="1" vertex="1">
                    <mxGeometry x="410" y="210" width="99" height="55" as="geometry"/>
                </mxCell>
                <mxCell id="15" value="" style="shape=mxgraph.signs.healthcare.eye;html=1;pointerEvents=1;fillColor=#000000;strokeColor=none;verticalLabelPosition=bottom;verticalAlign=top;align=center;" parent="1" vertex="1">
                    <mxGeometry x="410" y="155" width="99" height="55" as="geometry"/>
                </mxCell>
                <mxCell id="16" value="" style="shape=mxgraph.signs.healthcare.eye;html=1;pointerEvents=1;fillColor=#000000;strokeColor=none;verticalLabelPosition=bottom;verticalAlign=top;align=center;" parent="1" vertex="1">
                    <mxGeometry x="410" y="262.5" width="99" height="55" as="geometry"/>
                </mxCell>
                <mxCell id="17" value="" style="shape=mxgraph.signs.healthcare.eye;html=1;pointerEvents=1;fillColor=#000000;strokeColor=none;verticalLabelPosition=bottom;verticalAlign=top;align=center;" parent="1" vertex="1">
                    <mxGeometry x="410" y="317.5" width="99" height="55" as="geometry"/>
                </mxCell>
                <mxCell id="18" value="" style="shape=mxgraph.signs.healthcare.eye;html=1;pointerEvents=1;fillColor=#000000;strokeColor=none;verticalLabelPosition=bottom;verticalAlign=top;align=center;" parent="1" vertex="1">
                    <mxGeometry x="410" y="425" width="99" height="55" as="geometry"/>
                </mxCell>
                <mxCell id="19" value="" style="shape=mxgraph.signs.healthcare.eye;html=1;pointerEvents=1;fillColor=#000000;strokeColor=none;verticalLabelPosition=bottom;verticalAlign=top;align=center;" parent="1" vertex="1">
                    <mxGeometry x="410" y="370" width="99" height="55" as="geometry"/>
                </mxCell>
                <mxCell id="21" value="" style="sketch=0;html=1;aspect=fixed;strokeColor=#666666;shadow=0;align=center;verticalAlign=top;fillColor=#f5f5f5;shape=mxgraph.gcp2.check;fontColor=#333333;" parent="1" vertex="1">
                    <mxGeometry x="372" y="160" width="53.13" height="42.5" as="geometry"/>
                </mxCell>
                <mxCell id="22" value="" style="sketch=0;html=1;aspect=fixed;strokeColor=#666666;shadow=0;align=center;verticalAlign=top;fillColor=#f5f5f5;shape=mxgraph.gcp2.check;fontColor=#333333;" parent="1" vertex="1">
                    <mxGeometry x="372" y="210" width="53.13" height="42.5" as="geometry"/>
                </mxCell>
                <mxCell id="23" value="" style="sketch=0;html=1;aspect=fixed;strokeColor=#666666;shadow=0;align=center;verticalAlign=top;fillColor=#f5f5f5;shape=mxgraph.gcp2.check;fontColor=#333333;" parent="1" vertex="1">
                    <mxGeometry x="372" y="262.5" width="53.13" height="42.5" as="geometry"/>
                </mxCell>
                <mxCell id="24" value="" style="sketch=0;html=1;aspect=fixed;strokeColor=#666666;shadow=0;align=center;verticalAlign=top;fillColor=#f5f5f5;shape=mxgraph.gcp2.check;fontColor=#333333;" parent="1" vertex="1">
                    <mxGeometry x="372" y="317.5" width="53.13" height="42.5" as="geometry"/>
                </mxCell>
                <mxCell id="25" value="" style="shape=flexArrow;endArrow=classic;html=1;fillColor=#f5f5f5;strokeColor=#666666;" parent="1" edge="1">
                    <mxGeometry x="-0.2941" y="-20" width="50" height="50" relative="1" as="geometry">
                        <mxPoint x="380" y="489.5" as="sourcePoint"/>
                        <mxPoint x="520" y="490" as="targetPoint"/>
                        <Array as="points"/>
                        <mxPoint as="offset"/>
                    </mxGeometry>
                </mxCell>
                <mxCell id="27" value="Relay Confimed" style="edgeLabel;html=1;align=center;verticalAlign=middle;resizable=0;points=[];fontSize=18;fontColor=#F7F7F7;labelBackgroundColor=none;" parent="25" vertex="1" connectable="0">
                    <mxGeometry x="0.2058" y="1" relative="1" as="geometry">
                        <mxPoint x="-19" y="22" as="offset"/>
                    </mxGeometry>
                </mxCell>
                <mxCell id="26" value="&lt;p style=&quot;line-height: 1.7&quot;&gt;AMB Oracles&lt;/p&gt;" style="rounded=0;whiteSpace=wrap;html=1;fontColor=#ffffff;fillColor=#1ba1e2;strokeColor=#006EAF;" parent="1" vertex="1">
                    <mxGeometry x="380.01" y="30" width="130" height="80" as="geometry"/>
                </mxCell>
                <mxCell id="31" value="5. foo()" style="edgeStyle=none;html=1;labelBackgroundColor=none;fontSize=13;fontColor=#F7F7F7;strokeColor=#F7F7F7;" parent="1" source="28" target="30" edge="1">
                    <mxGeometry x="-0.4146" y="23" relative="1" as="geometry">
                        <mxPoint x="1" as="offset"/>
                    </mxGeometry>
                </mxCell>
                <mxCell id="50" value="3. requireToConfirmMessage()" style="edgeStyle=none;html=1;entryX=1.024;entryY=0.051;entryDx=0;entryDy=0;entryPerimeter=0;labelBackgroundColor=none;fontSize=13;fontColor=#0A0A0A;strokeColor=#0A0A0A;" parent="1" source="28" target="16" edge="1">
                    <mxGeometry x="-0.046" y="27" relative="1" as="geometry">
                        <mxPoint as="offset"/>
                    </mxGeometry>
                </mxCell>
                <mxCell id="28" value="Home Bridge Contract" style="rounded=1;whiteSpace=wrap;html=1;fillColor=#1ba1e2;strokeColor=#006EAF;fontColor=#ffffff;" parent="1" vertex="1">
                    <mxGeometry x="700" y="325" width="165" height="100" as="geometry"/>
                </mxCell>
                <mxCell id="30" value="Target Contract" style="rounded=1;whiteSpace=wrap;html=1;fillColor=#1ba1e2;strokeColor=#006EAF;fontColor=#ffffff;" parent="1" vertex="1">
                    <mxGeometry x="700" y="520" width="165" height="100" as="geometry"/>
                </mxCell>
                <mxCell id="38" value="Foreign Network (Ethereum)" style="text;html=1;align=center;verticalAlign=middle;resizable=0;points=[];autosize=1;strokeColor=none;fillColor=none;fontSize=18;fontColor=#F7F7F7;" parent="1" vertex="1">
                    <mxGeometry y="45" width="240" height="30" as="geometry"/>
                </mxCell>
                <mxCell id="39" value="Home Network (Gnosis)&lt;br&gt;" style="text;html=1;align=center;verticalAlign=middle;resizable=0;points=[];autosize=1;strokeColor=none;fillColor=none;fontSize=18;fontColor=#F7F7F7;" parent="1" vertex="1">
                    <mxGeometry x="600" y="40" width="210" height="30" as="geometry"/>
                </mxCell>
                <mxCell id="47" value="&lt;br&gt;&lt;br&gt;&lt;span style=&quot;font-family: &amp;#34;helvetica&amp;#34; ; font-size: 13px ; font-style: normal ; font-weight: 400 ; letter-spacing: normal ; text-align: center ; text-indent: 0px ; text-transform: none ; word-spacing: 0px ; display: inline ; float: none&quot;&gt;2. requireToPassMessage(_target_contract_addr, foo(), _gas)&lt;/span&gt;&lt;br&gt;" style="edgeStyle=none;html=1;labelBackgroundColor=none;fontSize=13;strokeColor=#0A0A0A;fontColor=#0A0A0A;" parent="1" source="46" target="28" edge="1">
                    <mxGeometry x="-0.3878" y="-12" relative="1" as="geometry">
                        <mxPoint y="1" as="offset"/>
                    </mxGeometry>
                </mxCell>
                <mxCell id="46" value="Originator Contract" style="rounded=1;whiteSpace=wrap;html=1;fillColor=#1ba1e2;strokeColor=#006EAF;fontColor=#ffffff;" parent="1" vertex="1">
                    <mxGeometry x="700" y="102.5" width="165" height="100" as="geometry"/>
                </mxCell>
                <mxCell id="49" value="&lt;font color=&quot;#030303&quot;&gt;1. Calls foo()&lt;/font&gt;" style="edgeStyle=none;html=1;labelBackgroundColor=none;fontSize=13;strokeColor=#0A0A0A;" parent="1" source="48" target="46" edge="1">
                    <mxGeometry x="0.0667" y="-12" relative="1" as="geometry">
                        <mxPoint as="offset"/>
                    </mxGeometry>
                </mxCell>
                <mxCell id="48" value="User&lt;br&gt;" style="shape=umlActor;verticalLabelPosition=bottom;verticalAlign=top;html=1;outlineConnect=0;fillColor=none;" parent="1" vertex="1">
                    <mxGeometry x="940" y="122.5" width="30" height="60" as="geometry"/>
                </mxCell>
                <mxCell id="53" value="" style="shape=flexArrow;endArrow=classic;html=1;fillColor=#0F0F0F;strokeColor=#666666;" parent="1" edge="1">
                    <mxGeometry x="-0.2941" y="-20" width="50" height="50" relative="1" as="geometry">
                        <mxPoint x="519" y="110.5" as="sourcePoint"/>
                        <mxPoint x="379" y="110" as="targetPoint"/>
                        <Array as="points"/>
                        <mxPoint as="offset"/>
                    </mxGeometry>
                </mxCell>
                <mxCell id="54" value="Relay Confimed" style="edgeLabel;html=1;align=center;verticalAlign=middle;resizable=0;points=[];fontSize=18;fontColor=#030303;labelBackgroundColor=none;" parent="53" vertex="1" connectable="0">
                    <mxGeometry x="0.2058" y="1" relative="1" as="geometry">
                        <mxPoint x="10" y="19" as="offset"/>
                    </mxGeometry>
                </mxCell>
                <mxCell id="55" value="4. executeSignatures()" style="edgeStyle=none;html=1;entryX=1;entryY=0.25;entryDx=0;entryDy=0;labelBackgroundColor=none;fontSize=13;fontColor=#0A0A0A;strokeColor=#0A0A0A;exitX=0.157;exitY=0.319;exitDx=0;exitDy=0;exitPerimeter=0;" parent="1" source="22" target="7" edge="1">
                    <mxGeometry x="-0.0637" y="-23" relative="1" as="geometry">
                        <mxPoint x="379" y="362.1750833044399" as="sourcePoint"/>
                        <mxPoint x="187.5050000000001" y="360.005" as="targetPoint"/>
                        <mxPoint as="offset"/>
                    </mxGeometry>
                </mxCell>
                <mxCell id="56" value="Target Contract" style="rounded=1;whiteSpace=wrap;html=1;fillColor=#1ba1e2;strokeColor=#006EAF;fontColor=#ffffff;" parent="1" vertex="1">
                    <mxGeometry x="-50" y="152.5" width="165" height="100" as="geometry"/>
                </mxCell>
            </root>
        </mxGraphModel>
    </diagram>
</mxfile>